<svg width="19" height="19" viewBox="0 0 19 19" fill="none" xmlns="http://www.w3.org/2000/svg">
<path d="M14.655 7.97739C14.655 8.56211 14.1604 9.03624 13.5504 9.03624C12.9403 9.03624 12.4457 8.56211 12.4457 7.97739C12.4457 7.39259 12.9403 6.91853 13.5504 6.91853C14.1604 6.91853 14.655 7.39259 14.655 7.97739Z" fill="#56B617"/>
<path fill-rule="evenodd" clip-rule="evenodd" d="M14.2788 4.37954C13.4398 4.27142 12.3679 4.27143 11.0144 4.27145H7.98566C6.63224 4.27143 5.56026 4.27142 4.7213 4.37954C3.8579 4.49081 3.15905 4.72525 2.60793 5.25351C2.05681 5.78177 1.81223 6.45163 1.69615 7.27923C1.58335 8.08339 1.58337 9.1109 1.58337 10.4082V10.4878C1.58337 11.7851 1.58335 12.8126 1.69615 13.6167C1.81223 14.4444 2.05681 15.1142 2.60793 15.6425C3.15905 16.1707 3.85789 16.4052 4.7213 16.5165C5.56026 16.6245 6.63224 16.6245 7.98566 16.6245H11.0144C12.3679 16.6245 13.4398 16.6245 14.2788 16.5165C15.1422 16.4052 15.8411 16.1707 16.3921 15.6425C16.9433 15.1142 17.1878 14.4444 17.3039 13.6167C17.4167 12.8126 17.4167 11.7851 17.4167 10.4878V10.4082C17.4167 9.1109 17.4167 8.08339 17.3039 7.27923C17.1878 6.45163 16.9433 5.78177 16.3921 5.25351C15.8411 4.72525 15.1422 4.49081 14.2788 4.37954ZM4.8685 5.42893C4.12758 5.52442 3.7007 5.70348 3.38904 6.00222C3.07738 6.30096 2.89057 6.71013 2.79095 7.42032C2.71105 7.98998 2.69316 8.70192 2.68917 9.63316L3.06192 9.32053C3.95184 8.57415 5.29309 8.61698 6.12924 9.41846L9.28835 12.4465C9.60462 12.7497 10.1026 12.791 10.4686 12.5445L10.6882 12.3966C11.7415 11.6871 13.1666 11.7692 14.1235 12.5948L16.0296 14.2391C16.1075 14.0301 16.1663 13.7806 16.2091 13.4757C16.3109 12.7503 16.3121 11.794 16.3121 10.448C16.3121 9.10195 16.3109 8.1457 16.2091 7.42032C16.1095 6.71013 15.9227 6.30096 15.6111 6.00222C15.2994 5.70348 14.8725 5.52442 14.1316 5.42893C13.3748 5.33141 12.3772 5.33028 10.9729 5.33028H8.02714C6.62293 5.33028 5.6253 5.33141 4.8685 5.42893Z" fill="#56B617"/>
<g opacity="0.5">
<path d="M13.5268 2.06656C12.8462 1.97914 11.9795 1.97915 10.8992 1.97917H8.45321C7.37286 1.97915 6.50622 1.97914 5.82554 2.06656C5.12066 2.15708 4.53297 2.34994 4.06684 2.79518C3.79802 3.05195 3.61697 3.34743 3.49365 3.68068C3.89281 3.4986 4.3441 3.39129 4.85077 3.32567C5.70924 3.21446 6.80615 3.21447 8.19101 3.21448H11.2903C12.6752 3.21447 13.772 3.21446 14.6305 3.32567C15.0731 3.38299 15.4733 3.4721 15.8335 3.61505C15.7111 3.30851 15.5367 3.03497 15.2855 2.79518C14.8194 2.34994 14.2317 2.15708 13.5268 2.06656Z" fill="#56B617"/>
</g>
</svg>
